<?xml version="1.0" encoding="utf-8"?>
<!-- Generator: Adobe Illustrator 22.1.0, SVG Export Plug-In . SVG Version: 6.00 Build 0)  -->
<svg version="1.1" id="Layer_1" xmlns="http://www.w3.org/2000/svg" xmlns:xlink="http://www.w3.org/1999/xlink" x="0px" y="0px"
	 viewBox="0 0 125.535 19.851" style="enable-background:new 0 0 125.535 19.851;" xml:space="preserve">
<style type="text/css">
	.st0{fill:#3F57F1;}
	.st1{fill:#FFFFFF;}
</style>
<g>
	<path class="st0" d="M7.894,9.328H1.434C0.642,9.328,0,8.686,0,7.894V1.434C0,0.642,0.642,0,1.434,0h6.461
		c0.792,0,1.434,0.642,1.434,1.434v6.461C9.328,8.686,8.686,9.328,7.894,9.328z"/>
	<path class="st0" d="M18.417,9.328h-6.461c-0.792,0-1.434-0.642-1.434-1.434V1.434C10.522,0.642,11.164,0,11.956,0h6.461
		c0.792,0,1.434,0.642,1.434,1.434v6.461C19.85,8.686,19.208,9.328,18.417,9.328z"/>
	<path class="st0" d="M7.894,19.851H1.434C0.642,19.851,0,19.209,0,18.417v-6.461c0-0.792,0.642-1.434,1.434-1.434h6.461
		c0.792,0,1.434,0.642,1.434,1.434v6.461C9.328,19.209,8.686,19.851,7.894,19.851z"/>
	<path class="st0" d="M18.417,19.851h-6.461c-0.792,0-1.434-0.642-1.434-1.434v-6.461c0-0.792,0.642-1.434,1.434-1.434h6.461
		c0.792,0,1.434,0.642,1.434,1.434v6.461C19.85,19.209,19.208,19.851,18.417,19.851z"/>
</g>
<g>
	<path class="st1" d="M32.216,5.875v2.083c0,2.563-1.236,3.959-3.753,3.959h-1.19v6.019h-2.517V1.915h3.707
		C30.98,1.915,32.216,3.311,32.216,5.875z M27.273,4.204v5.424h1.19c0.801,0,1.236-0.366,1.236-1.51V5.714
		c0-1.144-0.435-1.51-1.236-1.51H27.273z"/>
	<path class="st1" d="M33.29,5.76c0-2.563,1.35-4.028,3.822-4.028c2.471,0,3.822,1.465,3.822,4.028v8.33
		c0,2.563-1.35,4.028-3.822,4.028c-2.472,0-3.822-1.465-3.822-4.028V5.76z M35.808,14.25c0,1.145,0.504,1.579,1.305,1.579
		s1.304-0.435,1.304-1.579V5.6c0-1.144-0.503-1.579-1.304-1.579S35.808,4.456,35.808,5.6V14.25z"/>
	<path class="st1" d="M45.946,1.732c2.448,0,3.707,1.465,3.707,4.028v0.503h-2.38V5.6c0-1.144-0.458-1.579-1.259-1.579
		c-0.801,0-1.259,0.435-1.259,1.579c0,3.295,4.92,3.913,4.92,8.491c0,2.563-1.282,4.028-3.753,4.028
		c-2.472,0-3.753-1.465-3.753-4.028v-0.984h2.38v1.144c0,1.145,0.504,1.556,1.305,1.556s1.305-0.412,1.305-1.556
		c0-3.295-4.921-3.913-4.921-8.49C42.238,3.197,43.497,1.732,45.946,1.732z"/>
	<path class="st1" d="M50.385,1.915h7.781v2.289h-2.632v13.731h-2.517V4.204h-2.632V1.915z"/>
	<path class="st1" d="M59.264,1.915h2.517v16.02h-2.517V1.915z"/>
	<path class="st1" d="M65.854,6.332v11.603h-2.266V1.915h3.158l2.586,9.589V1.915h2.243v16.02h-2.586L65.854,6.332z"/>
	<path class="st1" d="M77.158,9.01h3.524v5.081c0,2.563-1.282,4.028-3.753,4.028c-2.472,0-3.753-1.465-3.753-4.028V5.76
		c0-2.563,1.282-4.028,3.753-4.028c2.471,0,3.753,1.465,3.753,4.028v1.556h-2.38V5.6c0-1.144-0.503-1.579-1.304-1.579
		c-0.801,0-1.305,0.435-1.305,1.579v8.651c0,1.145,0.504,1.556,1.305,1.556c0.801,0,1.304-0.412,1.304-1.556v-2.952h-1.144V9.01z"/>
	<path class="st1" d="M85.671,1.915c2.403,0,3.272,1.19,3.272,3.41v0.915c0,1.739-0.481,2.815-2.105,3.158
		c1.739,0.343,2.403,1.625,2.403,3.433v1.396c0,2.311-1.052,3.707-3.501,3.707h-3.433V1.915H85.671z M85.145,8.987
		c1.877,0,2.746-0.504,2.746-2.54v-1.03c0-1.671-0.526-2.54-2.243-2.54H83.36v6.11H85.145z M85.74,16.974
		c1.762,0,2.449-0.984,2.449-2.769v-1.442c0-2.083-0.938-2.815-2.838-2.815H83.36v7.026H85.74z"/>
	<path class="st1" d="M90.888,5.829c0-2.334,1.076-4.05,3.502-4.05c2.471,0,3.547,1.716,3.547,4.05v8.193
		c0,2.334-1.076,4.051-3.547,4.051c-2.426,0-3.502-1.716-3.502-4.051V5.829z M91.941,14.09c0,1.739,0.687,3.021,2.449,3.021
		c1.785,0,2.494-1.282,2.494-3.021V5.76c0-1.739-0.71-3.021-2.494-3.021c-1.762,0-2.449,1.282-2.449,3.021V14.09z"/>
	<path class="st1" d="M101.187,14.388l-0.801,3.547h-0.961l3.501-16.043h1.533l3.57,16.043h-1.053l-0.801-3.547H101.187z
		 M101.347,13.472h4.669l-2.357-10.367L101.347,13.472z"/>
	<path class="st1" d="M112.971,1.915c2.449,0,3.433,1.35,3.433,3.616v1.396c0,1.877-0.732,2.952-2.311,3.319
		c1.648,0.366,2.311,1.533,2.311,3.272v2.495c0,0.664,0.046,1.396,0.389,1.922h-1.098c-0.275-0.481-0.343-1.053-0.343-1.922v-2.517
		c0-2.128-1.167-2.724-2.998-2.724h-1.67v7.163h-1.053V1.915H112.971z M112.376,9.811c1.877,0,2.975-0.526,2.975-2.678v-1.51
		c0-1.716-0.664-2.746-2.403-2.746h-2.266v6.934H112.376z"/>
	<path class="st1" d="M121.987,1.915c2.472,0,3.547,1.625,3.547,3.982v8.056c0,2.357-1.075,3.982-3.547,3.982h-3.524V1.915H121.987z
		 M121.965,16.974c1.785,0,2.517-1.213,2.517-2.975V5.852c0-1.762-0.755-2.975-2.517-2.975h-2.449v14.097H121.965z"/>
</g>
</svg>
