<svg id="svg" xmlns="http://www.w3.org/2000/svg" xmlns:xlink="http://www.w3.org/1999/xlink" width="400" height="400" viewBox="0, 0, 400,400"><g id="svgg"><path id="path0" d="M16.000 23.017 C 16.000 32.196,367.837 384.000,377.017 384.000 C 387.935 384.000,385.272 371.693,371.215 357.190 L 358.431 344.000 371.215 344.000 L 384.000 344.000 384.000 200.000 L 384.000 56.000 226.850 56.000 L 69.699 56.000 50.000 36.000 C 29.899 15.593,16.000 10.285,16.000 23.017 M16.000 200.000 L 16.000 344.000 164.620 344.000 C 312.987 344.000,313.228 343.986,306.000 336.000 C 299.036 328.305,293.680 328.000,165.380 328.000 L 32.000 328.000 32.152 299.000 L 32.305 270.000 84.152 222.323 C 136.811 173.901,140.586 168.786,130.092 160.076 C 125.171 155.992,116.652 162.264,79.092 197.624 L 34.000 240.075 32.916 157.066 C 32.173 100.178,33.194 73.602,36.160 72.613 C 41.778 70.741,28.664 56.000,21.380 56.000 C 16.973 56.000,16.000 82.041,16.000 200.000 M368.000 180.935 L 368.000 289.870 322.937 244.935 C 272.972 195.111,271.922 194.629,253.088 212.884 L 239.794 225.769 162.910 148.884 L 86.026 72.000 227.013 72.000 L 368.000 72.000 368.000 180.935 M260.800 124.800 C 245.574 140.026,258.007 168.000,280.000 168.000 C 298.172 168.000,304.000 162.172,304.000 144.000 C 304.000 125.828,298.172 120.000,280.000 120.000 C 272.080 120.000,263.440 122.160,260.800 124.800 M321.063 271.060 C 371.512 321.641,375.294 328.000,354.932 328.000 C 333.108 328.000,251.325 243.795,261.852 232.164 C 272.067 220.876,269.000 218.862,321.063 271.060 M208.692 257.264 C 198.045 268.597,197.348 280.000,207.303 280.000 C 221.386 280.000,233.427 262.531,224.754 254.682 C 217.831 248.417,216.855 248.574,208.692 257.264 " stroke="none" fill="#000000" fill-rule="evenodd"></path></g></svg>